# xmcd CD database file
#
# Track frame offsets:
#	150
#	22557
#	40635
#	55752
#	74190
#	93060
#	110355
#	130507
#
# Disc length: 2013 seconds
#
# Revision: 0
# Processed by: cddbd v1.5.1PL0 Copyright (c) Steve Scherf et al.
# Submitted via: CDex 1.51
#
DISCID=5707db08
DTITLE=Mark Gray - The Silencer
DYEAR=1984
DGENRE=Jazz
TTITLE0=Her Sweetness
TTITLE1=Night Watch
TTITLE2=Chameleon
TTITLE3=Tangerine Rose
TTITLE4=Happy Street
TTITLE5=Don't Want Lose You
TTITLE6=Sanppy Fingers
TTITLE7=The Silencer
EXTD=YEAR: 1984
EXTT0=
EXTT1=
EXTT2=
EXTT3=
EXTT4=
EXTT5=
EXTT6=
EXTT7=
PLAYORDER=
